<?xml version="1.0" encoding="utf-8"?>
<!-- Generator: Adobe Illustrator 27.5.0, SVG Export Plug-In . SVG Version: 6.00 Build 0)  -->
<svg version="1.1" xmlns="http://www.w3.org/2000/svg" xmlns:xlink="http://www.w3.org/1999/xlink" x="0px" y="0px"
	 viewBox="0 0 500 500" style="enable-background:new 0 0 500 500;" xml:space="preserve">
<g id="BACKGROUND">
	<rect style="fill:#DCF1FE;" width="500" height="500"/>
	<g>
		<path style="opacity:0.3;fill:#8FD5FB;" d="M265.815,93.495H168.56c-6.967,0-12.615,5.648-12.615,12.615l0,0
			c0,6.967,5.648,12.615,12.615,12.615h97.256c6.967,0,12.615-5.648,12.615-12.615l0,0C278.43,99.143,272.782,93.495,265.815,93.495
			z"/>
		<path style="opacity:0.2;fill:#8FD5FB;" d="M385.233,147.029h-97.256c-6.967,0-12.615,5.648-12.615,12.615v0
			c0,6.967,5.648,12.615,12.615,12.615h97.256c6.967,0,12.615-5.648,12.615-12.615v0
			C397.847,152.677,392.199,147.029,385.233,147.029z"/>
		<path style="opacity:0.2;fill:#8FD5FB;" d="M0,440.348h119.189c7.052,0,12.768-5.716,12.768-12.768l0,0
			c0-7.052-5.716-12.768-12.768-12.768H0V440.348z"/>
		<path style="opacity:0.15;fill:#8FD5FB;" d="M500,369.44h-60.35c-7.052,0-12.768,5.716-12.768,12.768l0,0
			c0,7.051,5.716,12.768,12.768,12.768H500V369.44z"/>
		<path style="opacity:0.15;fill:#8FD5FB;" d="M0,65.65h81.042c14.031,0,25.405-11.374,25.405-25.405v0
			c0-14.031-11.374-25.405-25.405-25.405H0V65.65z"/>
		<path style="opacity:0.3;fill:#8FD5FB;" d="M198.887,291.189H75.285c-8.854,0-16.032,7.178-16.032,16.032l0,0
			c0,8.854,7.178,16.032,16.032,16.032h123.601c8.854,0,16.032-7.178,16.032-16.032l0,0
			C214.918,298.367,207.741,291.189,198.887,291.189z"/>
		<path style="opacity:0.15;fill:#8FD5FB;" d="M426.122,314.793h-97.255c-6.967,0-12.615,5.648-12.615,12.615l0,0
			c0,6.967,5.648,12.615,12.615,12.615h97.255c6.967,0,12.615-5.648,12.615-12.615l0,0
			C438.737,320.44,433.089,314.793,426.122,314.793z"/>
		<path style="opacity:0.15;fill:#8FD5FB;" d="M500,500v-38.793h-76.41c-14.031,0-25.405,11.374-25.405,25.405l0,0
			c0,4.914,1.399,9.5,3.815,13.388H500z"/>
	</g>
</g>
<g id="OBJECTS">
	<g>
		<path style="fill:#8FD5FB;" d="M358.429,281.425h-28.132c-1.933,0-3.5-1.567-3.5-3.5c0-1.933,1.567-3.5,3.5-3.5h28.132
			c1.933,0,3.5,1.567,3.5,3.5C361.929,279.857,360.361,281.425,358.429,281.425z"/>
	</g>
	<g>
		<g>
			<path style="fill:#E6FD9E;" d="M403.112,233.064h-21.846c-1.933,0-3.5-1.567-3.5-3.5c0-1.933,1.567-3.5,3.5-3.5h21.846
				c1.933,0,3.5,1.567,3.5,3.5C406.612,231.498,405.045,233.064,403.112,233.064z"/>
		</g>
		<path style="fill:#E6FD9E;" d="M419.424,229.612c0,1.943-1.575,3.518-3.518,3.518c-1.943,0-3.518-1.575-3.518-3.518
			c0-1.943,1.575-3.518,3.518-3.518C417.849,226.094,419.424,227.669,419.424,229.612z"/>
	</g>
	<g>
		<polygon style="fill:#35909F;" points="340.925,319.079 370.98,319.079 381.043,270.262 350.989,270.262 		"/>
		<path style="fill:#35909F;" d="M370.849,184.634h0.616c-0.359,0.896-0.784,2.131-1.276,3.706h28.219l8.753-41.248h-25.388
			c-4.126,0-8.039,1.834-10.678,5.005l-30.17,36.243h27.65C369.47,186.981,370.233,185.743,370.849,184.634z"/>
		<path style="fill:#62DF95;" d="M397.498,192.625h-28.578c-0.535,1.886-1.122,4.038-1.764,6.471
			c-1.915,7.249-3.283,12.857-4.103,16.822l-5.949,25.438h-31.9l32.105-38.158c3.275-3.984,6.029-7.507,8.271-10.574h-28.224
			l-41.078,49.347l-0.958,4.671c-2.048,9.983,5.578,19.332,15.769,19.332h40.784l0,0.001h30.055l0-0.001h0
			c10.167,0,18.949-7.112,21.062-17.057l1.606-7.561h-17.438L397.498,192.625z"/>
	</g>
	<g>
		<g>
			<path style="fill:#FFFFFF;" d="M316.339,158.529h-21.354c-1.381,0-2.5-1.119-2.5-2.5c0-1.381,1.119-2.5,2.5-2.5h21.354
				c1.381,0,2.5,1.119,2.5,2.5C318.839,157.41,317.72,158.529,316.339,158.529z"/>
		</g>
		<g>
			<path style="fill:#FFFFFF;" d="M340.925,158.529h-10.628c-1.381,0-2.5-1.119-2.5-2.5c0-1.381,1.119-2.5,2.5-2.5h10.628
				c1.381,0,2.5,1.119,2.5,2.5C343.425,157.41,342.306,158.529,340.925,158.529z"/>
		</g>
	</g>
	<g>
		<g>
			
				<rect x="232.143" y="196.112" transform="matrix(0.997 -0.078 0.078 0.997 -16.1649 18.8404)" style="fill:#62DF95;" width="2" height="40.555"/>
		</g>
		<g>
			
				<rect x="241.686" y="215.928" transform="matrix(0.4874 -0.8732 0.8732 0.4874 -52.7406 344.018)" style="fill:#35909F;" width="49.882" height="2"/>
		</g>
		<g>
			
				<rect x="232.363" y="219.858" transform="matrix(0.2383 -0.9712 0.9712 0.2383 -24.9706 409.8776)" style="fill:#35909F;" width="32.909" height="2"/>
		</g>
		<path style="fill:#62DF95;" d="M266.894,191.198c-3.691,6.154-7.828,11.381-12.405,15.695c16.793-0.4,29.9-8.446,39.316-24.149
			c9.661-16.111,14.492-37.641,14.492-64.591c0-24.795-9.568-38.249-28.692-40.374c3.862,8.016,5.802,18.309,5.802,30.903
			C285.408,143.111,279.235,170.615,266.894,191.198z"/>
		<path style="fill:#62DF95;" d="M250.518,109.561c4.524-12.927,10.241-23.477,17.142-31.671c-8.267,1.102-15.708,4.414-22.32,9.946
			c-8.257,6.91-14.793,17.245-19.61,31.006c-4.816,13.761-7.224,29.156-7.224,46.186c0,13.934,2.937,24.397,8.816,31.393
			c5.522,6.573,13.462,10.056,23.818,10.453c-6.567-8.895-9.85-21.662-9.85-38.309C241.289,146.809,244.365,127.141,250.518,109.561
			z"/>
		<path style="fill:#E6FD9E;" d="M267.66,77.89c-6.901,8.194-12.618,18.745-17.142,31.671c-6.153,17.58-9.229,37.248-9.229,59.003
			c0,16.646,3.283,29.414,9.85,38.309c0.666,0.025,1.341,0.04,2.027,0.04c0.444,0,0.883-0.009,1.322-0.019
			c4.577-4.314,8.715-9.541,12.405-15.695c12.341-20.583,18.514-48.088,18.514-82.517c0-12.594-1.941-22.887-5.802-30.903
			c-1.793-0.199-3.664-0.307-5.625-0.307C271.822,77.472,269.717,77.615,267.66,77.89z"/>
		<path style="fill:#62DF95;" d="M231.21,235.114c-0.021,0.648-0.035,1.299-0.035,1.961c0,4.9,1.033,8.58,3.1,11.04
			c2.067,2.46,5.097,3.69,9.09,3.69c6.13,0,10.894-2.833,14.292-8.5c1.433-2.39,2.56-5.123,3.389-8.192H231.21z"/>
		<path style="fill:#35909F;" d="M303.986,94.75c-2.582,25.913-9.037,47.48-19.364,64.703
			c-13.421,22.38-32.101,33.849-56.036,34.418c-0.625,0.015-1.252,0.027-1.884,0.027c-0.48,0-0.946-0.019-1.419-0.028
			c0.597,0.893,1.227,1.747,1.901,2.549c5.522,6.573,13.462,10.056,23.818,10.453c0.666,0.025,1.341,0.04,2.028,0.04
			c0.444,0,0.883-0.009,1.322-0.019c16.793-0.4,29.9-8.446,39.316-24.149c9.66-16.111,14.492-37.641,14.492-64.591
			C308.159,108.703,306.765,100.906,303.986,94.75z"/>
		<path style="fill:#35909F;" d="M254.314,235.114c-0.739,1.855-1.578,3.598-2.541,5.202c-3.574,5.96-8.382,9.359-14.417,10.214
			c1.676,0.842,3.673,1.275,6.008,1.275c6.13,0,10.894-2.833,14.292-8.5c1.433-2.39,2.56-5.124,3.389-8.192H254.314z"/>
		
			<ellipse transform="matrix(0.6565 -0.7543 0.7543 0.6565 5.8335 225.0303)" style="fill:#FFFFFF;" cx="250" cy="106.11" rx="13.15" ry="9.814"/>
	</g>
	<g>
		<path style="fill:#35909F;" d="M141.114,170.57h46.463l4.982-23.478H167.17c-4.126,0-8.039,1.834-10.678,5.005L141.114,170.57z"/>
		<path style="fill:#62DF95;" d="M142.708,203.2c6.632-8.068,11.145-14.258,13.54-18.566h0.615
			c-0.958,2.394-2.395,7.215-4.308,14.463c-1.915,7.249-3.282,12.857-4.103,16.822l-4.948,21.156h29.962l13.202-62.22h-49.121
			L98.24,222.073h28.587L142.708,203.2z"/>
		<path style="fill:#35909F;" d="M110.606,241.357h-0.004l12.62-14.998H94.673l-12.997,15.614l-0.958,4.671
			c-2.048,9.982,5.578,19.332,15.769,19.332h40.785l-6.462,31.08h30.054l6.462-31.08c10.167,0,18.949-7.112,21.062-17.057
			l1.606-7.558h-79.392L110.606,241.357z"/>
	</g>
	<g>
		<path style="fill:#FFFFFF;" d="M184.479,224.573h-19.535c-1.381,0-2.5-1.119-2.5-2.5c0-1.381,1.119-2.5,2.5-2.5h19.535
			c1.381,0,2.5,1.119,2.5,2.5C186.979,223.454,185.86,224.573,184.479,224.573z"/>
	</g>
	<g>
		<g>
			<g>
				<path style="fill:#35909F;" d="M179.131,378.631l5.865-27.748h14.064l-0.607,2.847h-10.856l-1.917,8.978h10.173l-0.551,2.809
					H185.11l-2.202,10.269h10.875l-0.607,2.847H179.131z"/>
				<path style="fill:#35909F;" d="M206.986,378.631l5.865-27.748h6.073c2.834,0,4.96,0.585,6.377,1.755
					c1.417,1.171,2.125,2.901,2.125,5.191c0,1.366-0.234,2.609-0.702,3.729s-1.218,2.085-2.249,2.895s-2.382,1.442-4.052,1.897
					l4.555,12.28h-3.492l-4.024-11.577h-4.84l-2.448,11.577H206.986z M213.192,364.32h3.359c1.278,0,2.391-0.148,3.34-0.446
					c0.949-0.297,1.736-0.718,2.363-1.262s1.094-1.202,1.405-1.975c0.31-0.771,0.465-1.632,0.465-2.581
					c0-1.606-0.459-2.739-1.376-3.397c-0.917-0.657-2.3-0.986-4.147-0.986h-3.113L213.192,364.32z"/>
				<path style="fill:#35909F;" d="M236.985,378.631l5.865-27.748h6.073c2.834,0,4.96,0.585,6.377,1.755
					c1.417,1.171,2.126,2.901,2.126,5.191c0,1.366-0.234,2.609-0.702,3.729c-0.469,1.12-1.218,2.085-2.249,2.895
					s-2.382,1.442-4.053,1.897l4.556,12.28h-3.492l-4.024-11.577h-4.84l-2.448,11.577H236.985z M243.192,364.32h3.359
					c1.278,0,2.391-0.148,3.34-0.446c0.949-0.297,1.736-0.718,2.363-1.262c0.626-0.544,1.094-1.202,1.404-1.975
					c0.31-0.771,0.465-1.632,0.465-2.581c0-1.606-0.459-2.739-1.376-3.397c-0.917-0.657-2.3-0.986-4.147-0.986h-3.113
					L243.192,364.32z"/>
				<path style="fill:#35909F;" d="M278.43,379.011c-2.228,0-4.103-0.443-5.628-1.329c-1.524-0.886-2.673-2.138-3.444-3.758
					c-0.772-1.619-1.158-3.523-1.158-5.713c0-1.581,0.143-3.112,0.428-4.593c0.284-1.48,0.698-2.882,1.243-4.204
					c0.544-1.322,1.217-2.53,2.021-3.625s1.725-2.041,2.762-2.838c1.038-0.797,2.186-1.414,3.445-1.851
					c1.259-0.437,2.622-0.654,4.09-0.654c3.112,0,5.545,0.965,7.298,2.895c1.752,1.93,2.629,4.608,2.629,8.037
					c0,1.531-0.127,3.027-0.38,4.489c-0.253,1.461-0.633,2.85-1.139,4.166c-0.507,1.316-1.139,2.521-1.898,3.615
					c-0.759,1.095-1.645,2.041-2.657,2.838c-1.012,0.797-2.15,1.417-3.416,1.859C281.358,378.789,279.96,379.011,278.43,379.011z
					 M278.543,376.183c1.089,0,2.095-0.189,3.019-0.569c0.923-0.38,1.762-0.911,2.515-1.595c0.753-0.683,1.417-1.486,1.993-2.41
					c0.575-0.924,1.06-1.938,1.451-3.046c0.393-1.107,0.689-2.274,0.893-3.502c0.202-1.228,0.304-2.48,0.304-3.758
					c0-2.531-0.598-4.499-1.794-5.903c-1.195-1.404-2.85-2.106-4.963-2.106c-1.089,0-2.101,0.181-3.037,0.541
					s-1.79,0.873-2.563,1.537c-0.771,0.664-1.451,1.452-2.04,2.363c-0.588,0.911-1.085,1.92-1.49,3.027
					c-0.404,1.107-0.711,2.28-0.92,3.521s-0.313,2.524-0.313,3.853c0,1.671,0.272,3.106,0.816,4.309s1.335,2.126,2.372,2.771
					C275.823,375.859,277.075,376.183,278.543,376.183z"/>
				<path style="fill:#35909F;" d="M302.772,378.631l5.865-27.748h6.073c2.834,0,4.96,0.585,6.377,1.755
					c1.417,1.171,2.126,2.901,2.126,5.191c0,1.366-0.234,2.609-0.702,3.729s-1.218,2.085-2.249,2.895s-2.382,1.442-4.052,1.897
					l4.555,12.28h-3.492l-4.023-11.577h-4.84l-2.448,11.577H302.772z M308.979,364.32h3.359c1.277,0,2.392-0.148,3.34-0.446
					c0.949-0.297,1.737-0.718,2.363-1.262s1.095-1.202,1.404-1.975c0.311-0.771,0.465-1.632,0.465-2.581
					c0-1.606-0.458-2.739-1.376-3.397c-0.917-0.657-2.3-0.986-4.146-0.986h-3.113L308.979,364.32z"/>
			</g>
		</g>
		<text transform="matrix(1 0 0 1 191.8815 398.218)"><tspan x="0" y="0" style="fill:#62DF95; font-family:'OpenSans-SemiboldItalic'; font-size:13px;">This is embarrasing,</tspan><tspan x="-0.192" y="15.6" style="fill:#62DF95; font-family:'OpenSans-SemiboldItalic'; font-size:13px;">we’ve got a problem</tspan></text>
	</g>
	<g>
		<path style="fill:#E6FD9E;" d="M208.997,140.537H163.47c-1.933,0-3.5-1.567-3.5-3.5c0-1.933,1.567-3.5,3.5-3.5h45.527
			c1.933,0,3.5,1.567,3.5,3.5C212.497,138.97,210.93,140.537,208.997,140.537z"/>
	</g>
	<g>
		<path style="fill:#35909F;" d="M233.144,159.029h-36.913c-1.657,0-3-1.343-3-3c0-1.657,1.343-3,3-3h36.913c1.657,0,3,1.343,3,3
			C236.144,157.686,234.8,159.029,233.144,159.029z"/>
	</g>
	<g>
		<g>
			<path style="fill:#FFFFFF;" d="M224.527,170.821h-10.978c-1.381,0-2.5-1.119-2.5-2.5s1.119-2.5,2.5-2.5h10.978
				c1.381,0,2.5,1.119,2.5,2.5S225.908,170.821,224.527,170.821z"/>
		</g>
		<g>
			<path style="fill:#FFFFFF;" d="M267.66,170.821h-30.066c-1.381,0-2.5-1.119-2.5-2.5s1.119-2.5,2.5-2.5h30.066
				c1.381,0,2.5,1.119,2.5,2.5S269.041,170.821,267.66,170.821z"/>
		</g>
	</g>
	<g>
		<path style="fill:#E6FD9E;" d="M196.231,196.126h-24.559c-1.933,0-3.5-1.567-3.5-3.5c0-1.933,1.567-3.5,3.5-3.5h24.559
			c1.933,0,3.5,1.567,3.5,3.5C199.731,194.559,198.164,196.126,196.231,196.126z"/>
	</g>
	<g>
		<path style="fill:#7EBCD4;" d="M283.226,274.997h-5.314c-1.933,0-3.5-1.567-3.5-3.5s1.567-3.5,3.5-3.5h5.314
			c1.933,0,3.5,1.567,3.5,3.5S285.158,274.997,283.226,274.997z"/>
	</g>
	<g>
		<path style="fill:#FFFFFF;" d="M427.883,124.424h-31.452c-1.381,0-2.5-1.119-2.5-2.5c0-1.381,1.119-2.5,2.5-2.5h31.452
			c1.381,0,2.5,1.119,2.5,2.5C430.383,123.305,429.264,124.424,427.883,124.424z"/>
	</g>
	<g>
		<g>
			<path style="fill:#FFFFFF;" d="M79.991,185.66h-16.77c-1.933,0-3.5-1.567-3.5-3.5s1.567-3.5,3.5-3.5h16.77
				c1.933,0,3.5,1.567,3.5,3.5S81.924,185.66,79.991,185.66z"/>
		</g>
		<g>
			<path style="fill:#FFFFFF;" d="M138.899,185.66h-31.452c-1.933,0-3.5-1.567-3.5-3.5s1.567-3.5,3.5-3.5h31.452
				c1.933,0,3.5,1.567,3.5,3.5S140.832,185.66,138.899,185.66z"/>
		</g>
	</g>
	<g>
		<g>
			<path style="fill:#E6FD9E;" d="M134.655,254.306h-5.314c-1.381,0-2.5-1.119-2.5-2.5c0-1.381,1.119-2.5,2.5-2.5h5.314
				c1.381,0,2.5,1.119,2.5,2.5C137.155,253.186,136.036,254.306,134.655,254.306z"/>
		</g>
		<g>
			<path style="fill:#E6FD9E;" d="M111.586,254.306H64.785c-1.381,0-2.5-1.119-2.5-2.5c0-1.381,1.119-2.5,2.5-2.5h46.801
				c1.381,0,2.5,1.119,2.5,2.5C114.086,253.186,112.967,254.306,111.586,254.306z"/>
		</g>
	</g>
	<g>
		<path style="fill:#35909F;" d="M241.289,307.608h-34.655c-1.933,0-3.5-1.567-3.5-3.5s1.567-3.5,3.5-3.5h34.655
			c1.933,0,3.5,1.567,3.5,3.5S243.222,307.608,241.289,307.608z"/>
	</g>
	<g>
		<path style="fill:#7EBCD4;" d="M264.371,274.997h-16.835c-1.933,0-3.5-1.567-3.5-3.5s1.567-3.5,3.5-3.5h16.835
			c1.933,0,3.5,1.567,3.5,3.5S266.304,274.997,264.371,274.997z"/>
	</g>
	<g>
		<g>
			<path style="fill:#62DF95;" d="M112.745,96.285c0,0.745-0.126,1.427-0.378,2.047c-0.251,0.62-0.604,1.105-1.057,1.457
				c-0.453,0.352-0.959,0.526-1.517,0.526c-0.415,0-0.733-0.097-0.956-0.291c-0.222-0.195-0.358-0.449-0.409-0.762h-0.038
				c-0.427,0.702-1.014,1.053-1.758,1.053c-0.521,0-0.921-0.166-1.203-0.498c-0.282-0.332-0.422-0.794-0.422-1.387
				c0-0.639,0.143-1.23,0.428-1.774c0.286-0.544,0.684-0.973,1.193-1.288c0.51-0.316,1.068-0.473,1.673-0.473
				c0.22,0,0.42,0.01,0.6,0.031c0.18,0.021,0.348,0.049,0.505,0.082c0.157,0.034,0.43,0.117,0.819,0.248l-0.641,2.488
				c-0.127,0.482-0.19,0.818-0.19,1.01c0,0.389,0.167,0.584,0.501,0.584c0.305,0,0.588-0.142,0.851-0.423
				c0.262-0.281,0.469-0.65,0.619-1.107c0.15-0.457,0.226-0.943,0.226-1.46c0-0.965-0.272-1.7-0.815-2.206
				c-0.544-0.506-1.313-0.759-2.308-0.759c-0.906,0-1.72,0.211-2.444,0.632c-0.724,0.421-1.288,1.017-1.692,1.787
				c-0.404,0.771-0.606,1.629-0.606,2.577c0,1.096,0.297,1.944,0.892,2.545c0.594,0.602,1.423,0.902,2.485,0.902
				c0.846,0,1.756-0.183,2.729-0.547v0.984c-0.927,0.381-1.887,0.571-2.882,0.571c-0.889,0-1.665-0.177-2.33-0.53
				c-0.664-0.354-1.175-0.859-1.533-1.52c-0.357-0.66-0.536-1.433-0.536-2.317c0-1.143,0.259-2.177,0.777-3.104
				c0.519-0.926,1.244-1.654,2.178-2.184c0.933-0.528,1.977-0.793,3.132-0.793c0.846,0,1.579,0.157,2.196,0.473
				c0.618,0.315,1.091,0.77,1.418,1.361C112.581,94.814,112.745,95.502,112.745,96.285z M108.193,95.86
				c-0.364,0-0.699,0.112-1.006,0.339c-0.307,0.227-0.547,0.531-0.72,0.914c-0.173,0.383-0.26,0.793-0.26,1.229
				c0,0.664,0.237,0.997,0.711,0.997c0.347,0,0.647-0.152,0.898-0.457c0.251-0.305,0.464-0.771,0.638-1.396l0.406-1.523
				C108.636,95.894,108.414,95.86,108.193,95.86z"/>
		</g>
		<g>
			<path style="fill:#8FD5FB;" d="M354.354,76.146c0,0.745-0.126,1.427-0.378,2.047c-0.251,0.62-0.604,1.105-1.057,1.457
				c-0.453,0.352-0.958,0.526-1.517,0.526c-0.415,0-0.733-0.097-0.956-0.291c-0.222-0.195-0.358-0.449-0.409-0.762H350
				c-0.427,0.702-1.014,1.053-1.758,1.053c-0.521,0-0.921-0.166-1.203-0.498c-0.282-0.332-0.422-0.794-0.422-1.387
				c0-0.639,0.143-1.23,0.428-1.774c0.286-0.544,0.684-0.973,1.193-1.288c0.51-0.315,1.068-0.473,1.673-0.473
				c0.22,0,0.42,0.01,0.6,0.031c0.18,0.021,0.348,0.049,0.505,0.082c0.157,0.034,0.43,0.117,0.819,0.248l-0.641,2.488
				c-0.127,0.482-0.19,0.818-0.19,1.01c0,0.389,0.167,0.584,0.501,0.584c0.305,0,0.588-0.142,0.851-0.423
				c0.262-0.281,0.469-0.65,0.619-1.107c0.15-0.457,0.226-0.943,0.226-1.46c0-0.965-0.272-1.7-0.815-2.206
				c-0.544-0.506-1.313-0.759-2.308-0.759c-0.906,0-1.72,0.211-2.444,0.632c-0.724,0.421-1.288,1.017-1.692,1.787
				c-0.404,0.771-0.606,1.629-0.606,2.577c0,1.096,0.297,1.944,0.892,2.545c0.594,0.602,1.423,0.902,2.485,0.902
				c0.846,0,1.756-0.183,2.729-0.547v0.984c-0.927,0.381-1.887,0.571-2.882,0.571c-0.889,0-1.665-0.177-2.33-0.53
				c-0.665-0.354-1.175-0.859-1.533-1.52c-0.357-0.66-0.536-1.433-0.536-2.317c0-1.143,0.259-2.177,0.777-3.104
				c0.519-0.926,1.244-1.654,2.178-2.184c0.933-0.528,1.977-0.793,3.132-0.793c0.846,0,1.579,0.157,2.196,0.473
				c0.618,0.315,1.091,0.769,1.419,1.361C354.19,74.675,354.354,75.362,354.354,76.146z M349.803,75.721
				c-0.364,0-0.699,0.112-1.006,0.339c-0.307,0.227-0.547,0.531-0.72,0.914c-0.173,0.383-0.26,0.793-0.26,1.229
				c0,0.664,0.237,0.997,0.711,0.997c0.347,0,0.646-0.152,0.898-0.457c0.251-0.305,0.464-0.771,0.638-1.396l0.406-1.524
				C350.245,75.754,350.023,75.721,349.803,75.721z"/>
		</g>
		<g style="opacity:0.15;">
			<path style="fill:#8FD5FB;" d="M459.466,326.081c0,0.745-0.126,1.427-0.378,2.047c-0.252,0.62-0.604,1.105-1.057,1.457
				c-0.453,0.352-0.959,0.526-1.517,0.526c-0.415,0-0.733-0.097-0.956-0.291c-0.222-0.195-0.358-0.449-0.409-0.762h-0.038
				c-0.427,0.702-1.014,1.053-1.758,1.053c-0.52,0-0.921-0.166-1.203-0.498c-0.282-0.332-0.422-0.794-0.422-1.387
				c0-0.639,0.143-1.23,0.428-1.774c0.286-0.544,0.684-0.973,1.193-1.288c0.51-0.315,1.068-0.473,1.673-0.473
				c0.22,0,0.42,0.01,0.6,0.031c0.18,0.021,0.348,0.049,0.505,0.082c0.157,0.034,0.43,0.117,0.819,0.248l-0.641,2.488
				c-0.127,0.482-0.191,0.818-0.191,1.01c0,0.389,0.167,0.584,0.501,0.584c0.305,0,0.588-0.142,0.851-0.423
				c0.262-0.281,0.469-0.65,0.619-1.107c0.15-0.457,0.226-0.943,0.226-1.46c0-0.965-0.272-1.7-0.815-2.206
				c-0.544-0.506-1.313-0.759-2.308-0.759c-0.906,0-1.72,0.211-2.444,0.632c-0.724,0.421-1.288,1.017-1.692,1.787
				c-0.404,0.771-0.606,1.629-0.606,2.577c0,1.096,0.297,1.944,0.892,2.545c0.594,0.602,1.423,0.902,2.485,0.902
				c0.846,0,1.756-0.183,2.73-0.547v0.984c-0.927,0.381-1.887,0.571-2.882,0.571c-0.889,0-1.665-0.177-2.33-0.53
				c-0.665-0.353-1.175-0.859-1.533-1.52c-0.357-0.66-0.536-1.433-0.536-2.317c0-1.143,0.259-2.177,0.777-3.105
				c0.519-0.926,1.244-1.654,2.178-2.184c0.933-0.528,1.977-0.793,3.132-0.793c0.846,0,1.579,0.157,2.196,0.473
				c0.618,0.315,1.091,0.77,1.418,1.361C459.302,324.61,459.466,325.297,459.466,326.081z M454.914,325.656
				c-0.364,0-0.699,0.112-1.006,0.339c-0.307,0.227-0.547,0.531-0.72,0.914c-0.173,0.383-0.26,0.793-0.26,1.228
				c0,0.664,0.237,0.997,0.711,0.997c0.347,0,0.647-0.152,0.898-0.457c0.251-0.305,0.464-0.771,0.638-1.396l0.406-1.524
				C455.357,325.689,455.135,325.656,454.914,325.656z"/>
		</g>
		<g>
			<path style="fill:#62DF95;" d="M107.647,343.919c0,0.745-0.126,1.427-0.378,2.047c-0.251,0.62-0.604,1.105-1.057,1.457
				c-0.453,0.352-0.958,0.526-1.517,0.526c-0.414,0-0.733-0.097-0.956-0.291c-0.222-0.195-0.358-0.449-0.409-0.762h-0.038
				c-0.427,0.702-1.014,1.053-1.758,1.053c-0.521,0-0.921-0.166-1.203-0.498c-0.282-0.332-0.422-0.794-0.422-1.387
				c0-0.639,0.143-1.23,0.428-1.774c0.286-0.544,0.684-0.973,1.193-1.288c0.51-0.315,1.068-0.473,1.673-0.473
				c0.22,0,0.42,0.01,0.6,0.031c0.18,0.021,0.348,0.049,0.505,0.082c0.157,0.034,0.43,0.117,0.819,0.248l-0.641,2.488
				c-0.127,0.482-0.19,0.818-0.19,1.01c0,0.389,0.167,0.584,0.502,0.584c0.305,0,0.588-0.142,0.851-0.423
				c0.262-0.281,0.469-0.65,0.619-1.107c0.15-0.457,0.226-0.943,0.226-1.46c0-0.965-0.272-1.7-0.815-2.206
				c-0.544-0.506-1.313-0.759-2.308-0.759c-0.906,0-1.72,0.211-2.444,0.632s-1.288,1.017-1.692,1.787
				c-0.404,0.77-0.606,1.629-0.606,2.577c0,1.096,0.297,1.944,0.892,2.545c0.594,0.602,1.423,0.902,2.485,0.902
				c0.846,0,1.756-0.183,2.729-0.547v0.984c-0.927,0.381-1.887,0.571-2.882,0.571c-0.889,0-1.665-0.177-2.33-0.53
				c-0.665-0.354-1.175-0.859-1.533-1.52c-0.358-0.66-0.536-1.433-0.536-2.317c0-1.143,0.259-2.177,0.777-3.104
				c0.519-0.926,1.244-1.654,2.178-2.184c0.933-0.528,1.977-0.793,3.132-0.793c0.846,0,1.579,0.157,2.196,0.473
				c0.618,0.315,1.091,0.77,1.419,1.361C107.483,342.449,107.647,343.136,107.647,343.919z M103.096,343.495
				c-0.364,0-0.699,0.112-1.006,0.339c-0.307,0.227-0.547,0.531-0.72,0.914c-0.173,0.383-0.26,0.793-0.26,1.229
				c0,0.664,0.237,0.997,0.711,0.997c0.347,0,0.646-0.152,0.898-0.457c0.251-0.305,0.464-0.771,0.638-1.397l0.406-1.523
				C103.539,343.528,103.316,343.495,103.096,343.495z"/>
		</g>
		<g>
			<path style="fill:#FFFFFF;" d="M349.257,418.71c0,0.745-0.126,1.427-0.378,2.047c-0.251,0.62-0.604,1.105-1.057,1.457
				c-0.453,0.352-0.958,0.526-1.517,0.526c-0.415,0-0.733-0.097-0.956-0.291c-0.222-0.195-0.358-0.449-0.409-0.762h-0.038
				c-0.427,0.702-1.014,1.053-1.758,1.053c-0.521,0-0.921-0.166-1.203-0.498c-0.282-0.332-0.422-0.794-0.422-1.387
				c0-0.639,0.143-1.23,0.428-1.774c0.286-0.544,0.684-0.973,1.193-1.288c0.51-0.315,1.068-0.473,1.673-0.473
				c0.22,0,0.42,0.01,0.6,0.031c0.18,0.021,0.348,0.049,0.505,0.082c0.157,0.034,0.43,0.117,0.819,0.248l-0.641,2.488
				c-0.127,0.482-0.19,0.818-0.19,1.01c0,0.389,0.167,0.584,0.501,0.584c0.305,0,0.588-0.142,0.851-0.423
				c0.262-0.281,0.469-0.65,0.619-1.107c0.15-0.457,0.226-0.943,0.226-1.46c0-0.965-0.272-1.7-0.815-2.206
				c-0.544-0.506-1.313-0.759-2.308-0.759c-0.906,0-1.72,0.211-2.444,0.632s-1.288,1.017-1.692,1.787
				c-0.404,0.771-0.606,1.629-0.606,2.577c0,1.096,0.297,1.944,0.892,2.545c0.594,0.602,1.423,0.902,2.485,0.902
				c0.846,0,1.756-0.183,2.729-0.547v0.984c-0.927,0.381-1.887,0.571-2.882,0.571c-0.889,0-1.665-0.177-2.33-0.53
				c-0.665-0.353-1.175-0.859-1.533-1.52c-0.357-0.66-0.536-1.433-0.536-2.317c0-1.143,0.259-2.177,0.777-3.104
				c0.518-0.926,1.244-1.654,2.178-2.184c0.933-0.528,1.977-0.793,3.132-0.793c0.846,0,1.579,0.157,2.196,0.473
				c0.618,0.315,1.091,0.77,1.419,1.361C349.093,417.239,349.257,417.927,349.257,418.71z M344.706,418.285
				c-0.364,0-0.699,0.112-1.006,0.339c-0.307,0.227-0.547,0.531-0.72,0.914c-0.173,0.383-0.26,0.793-0.26,1.229
				c0,0.664,0.237,0.997,0.711,0.997c0.347,0,0.647-0.152,0.898-0.457c0.251-0.305,0.464-0.77,0.638-1.396l0.406-1.523
				C345.148,418.318,344.926,418.285,344.706,418.285z"/>
		</g>
		<g>
			<g>
				<path style="fill:#FFFFFF;" d="M225.113,281.083c0,0.745-0.126,1.427-0.378,2.047c-0.252,0.62-0.604,1.105-1.057,1.457
					c-0.453,0.352-0.958,0.526-1.517,0.526c-0.415,0-0.733-0.097-0.956-0.291c-0.222-0.195-0.358-0.449-0.409-0.762h-0.038
					c-0.427,0.702-1.014,1.053-1.758,1.053c-0.521,0-0.921-0.166-1.203-0.498c-0.282-0.332-0.422-0.794-0.422-1.387
					c0-0.639,0.143-1.23,0.428-1.774c0.286-0.544,0.684-0.973,1.193-1.288c0.51-0.315,1.068-0.473,1.673-0.473
					c0.22,0,0.42,0.01,0.6,0.031c0.18,0.021,0.348,0.049,0.505,0.082c0.157,0.034,0.43,0.117,0.819,0.248l-0.641,2.488
					c-0.127,0.482-0.19,0.818-0.19,1.01c0,0.389,0.167,0.584,0.501,0.584c0.305,0,0.588-0.142,0.851-0.423
					c0.262-0.281,0.469-0.65,0.619-1.108c0.15-0.457,0.226-0.943,0.226-1.46c0-0.965-0.272-1.7-0.816-2.206
					c-0.544-0.506-1.313-0.759-2.308-0.759c-0.906,0-1.72,0.211-2.444,0.632c-0.724,0.421-1.288,1.017-1.692,1.787
					c-0.404,0.771-0.606,1.629-0.606,2.577c0,1.096,0.297,1.944,0.892,2.545c0.594,0.602,1.423,0.902,2.485,0.902
					c0.846,0,1.756-0.183,2.73-0.547v0.984c-0.927,0.381-1.887,0.571-2.882,0.571c-0.889,0-1.665-0.177-2.33-0.53
					c-0.665-0.353-1.175-0.859-1.533-1.52c-0.357-0.66-0.536-1.433-0.536-2.317c0-1.143,0.259-2.177,0.777-3.104
					c0.519-0.926,1.244-1.654,2.178-2.184c0.933-0.528,1.977-0.793,3.132-0.793c0.846,0,1.579,0.157,2.196,0.473
					c0.618,0.315,1.091,0.77,1.418,1.361C224.949,279.612,225.113,280.299,225.113,281.083z M220.562,280.658
					c-0.364,0-0.699,0.112-1.006,0.339c-0.307,0.227-0.547,0.531-0.72,0.914c-0.173,0.383-0.26,0.793-0.26,1.228
					c0,0.664,0.237,0.997,0.711,0.997c0.347,0,0.646-0.152,0.898-0.457c0.251-0.305,0.464-0.77,0.638-1.396l0.406-1.523
					C221.004,280.691,220.782,280.658,220.562,280.658z"/>
			</g>
			<g>
				<path style="fill:#FFFFFF;" d="M198.141,285.409h-29.654c-1.657,0-3-1.343-3-3s1.343-3,3-3h29.654c1.657,0,3,1.343,3,3
					S199.798,285.409,198.141,285.409z"/>
			</g>
		</g>
	</g>
	<g>
		<path style="fill:#FFFFFF;" d="M177.61,170.57c-1.704-5.314-6.681-9.163-12.561-9.163c-0.19,0-0.374,0.02-0.562,0.028
			c-1.808-6.668-7.886-11.579-15.126-11.579c-0.578,0-1.148,0.036-1.71,0.097c-3.649-7.783-11.55-13.175-20.715-13.175
			c-7.602,0-14.334,3.712-18.492,9.419c-2.143-0.759-4.447-1.175-6.85-1.175c-11.334,0-20.522,9.188-20.522,20.522
			c0,1.734,0.217,3.417,0.622,5.026H177.61z"/>
		<path style="fill:#8FD5FB;" d="M165.049,161.407c-0.19,0-0.374,0.02-0.562,0.028c-1.808-6.668-7.886-11.579-15.126-11.579
			c-0.578,0-1.148,0.036-1.71,0.097c-3.649-7.783-11.55-13.175-20.715-13.175c-4.929,0-9.48,1.577-13.213,4.23
			c5.489,0.623,10.191,3.835,12.857,8.386c7.027,2.191,12.517,7.856,14.453,14.996c0.259-0.011,0.514-0.039,0.776-0.039
			c5.461,0,10.351,2.411,13.687,6.218h22.113C175.906,165.256,170.929,161.407,165.049,161.407z"/>
	</g>
	<g>
		<path style="fill:#8FD5FB;" d="M407.16,142.192c-2.044-6.375-8.014-10.992-15.068-10.992c-0.228,0-0.449,0.025-0.674,0.034
			c-2.169-7.999-9.46-13.891-18.145-13.891c-0.694,0-1.377,0.043-2.051,0.117c-4.377-9.337-13.856-15.805-24.849-15.805
			c-9.12,0-17.195,4.453-22.183,11.3c-2.57-0.91-5.335-1.41-8.217-1.41c-13.596,0-24.618,11.022-24.618,24.619
			c0,2.08,0.261,4.099,0.746,6.029H407.16z"/>
		<path style="fill:#FFFFFF;" d="M392.092,131.201c-0.228,0-0.449,0.025-0.674,0.034c-2.169-7.999-9.46-13.891-18.145-13.891
			c-0.694,0-1.377,0.043-2.051,0.117c-4.377-9.337-13.856-15.805-24.849-15.805c-5.207,0-10.071,1.457-14.217,3.977
			c0.012,0,0.025-0.001,0.037-0.001c13.029,0,24.262,7.666,29.45,18.732c0.799-0.087,1.609-0.138,2.431-0.138
			c10.294,0,18.934,6.983,21.505,16.463c0.267-0.011,0.529-0.04,0.799-0.04c2.65,0,5.169,0.553,7.454,1.545h13.328
			C405.116,135.817,399.146,131.201,392.092,131.201z"/>
	</g>
	<g>
		<path style="fill:#8FD5FB;" d="M199.524,304.289c-1.413-4.407-5.541-7.599-10.417-7.599c-0.157,0-0.311,0.017-0.466,0.023
			c-1.499-5.53-6.54-9.604-12.545-9.604c-0.48,0-0.952,0.03-1.418,0.081c-3.026-6.455-9.579-10.927-17.18-10.927
			c-6.305,0-11.888,3.079-15.337,7.812c-1.777-0.629-3.688-0.975-5.681-0.975c-9.4,0-17.021,7.62-17.021,17.021
			c0,1.438,0.18,2.834,0.516,4.168H199.524z"/>
		<path style="fill:#FFFFFF;" d="M162.128,288.562c0.523-0.057,1.053-0.09,1.591-0.09c6.734,0,12.387,4.568,14.069,10.77
			c0.175-0.007,0.346-0.026,0.523-0.026c4.087,0,7.704,2,9.933,5.074h11.281c-1.413-4.407-5.541-7.599-10.417-7.599
			c-0.157,0-0.31,0.017-0.466,0.023c-1.499-5.53-6.54-9.604-12.545-9.604c-0.48,0-0.952,0.03-1.418,0.081
			c-3.026-6.455-9.579-10.927-17.18-10.927c-2.531,0-4.941,0.503-7.148,1.403C155.551,279.625,159.783,283.562,162.128,288.562z"/>
	</g>
	<g>
		<path style="fill:#FFFFFF;" d="M410.191,327.407c-2.044-6.375-8.014-10.992-15.068-10.992c-0.228,0-0.449,0.024-0.674,0.034
			c-2.169-7.999-9.46-13.891-18.145-13.891c-0.694,0-1.377,0.043-2.051,0.117c-4.377-9.337-13.856-15.805-24.849-15.805
			c-9.12,0-17.195,4.453-22.183,11.3c-2.57-0.91-5.335-1.41-8.217-1.41c-13.596,0-24.619,11.022-24.619,24.618
			c0,2.08,0.261,4.099,0.746,6.029H410.191z"/>
		<path style="fill:#8FD5FB;" d="M337.541,290.013c13.355,0,24.566,9.059,27.901,21.359c0.346-0.015,0.687-0.052,1.037-0.052
			c10.54,0,19.49,6.713,22.872,16.088h20.84c-2.044-6.375-8.014-10.992-15.068-10.992c-0.228,0-0.449,0.024-0.674,0.034
			c-2.169-7.999-9.46-13.891-18.145-13.891c-0.694,0-1.377,0.043-2.051,0.117c-4.377-9.337-13.856-15.805-24.849-15.805
			c-4.624,0-8.978,1.149-12.799,3.171C336.917,290.03,337.227,290.013,337.541,290.013z"/>
	</g>
	<path style="fill:#E6FD9E;" d="M152.955,137.036c0,2.013-1.632,3.644-3.644,3.644c-2.013,0-3.644-1.632-3.644-3.644
		c0-2.013,1.632-3.644,3.644-3.644C151.324,133.392,152.955,135.024,152.955,137.036z"/>
	<path style="fill:#FFFFFF;" d="M438.737,121.924c0,1.257-1.019,2.276-2.277,2.276c-1.257,0-2.276-1.019-2.276-2.276
		c0-1.257,1.019-2.276,2.276-2.276C437.718,119.647,438.737,120.666,438.737,121.924z"/>
	<g>
		<g>
			<path style="fill:#FFFFFF;" d="M434.841,252.352h-12.389c-1.933,0-3.5-1.567-3.5-3.5c0-1.933,1.567-3.5,3.5-3.5h12.389
				c1.933,0,3.5,1.567,3.5,3.5C438.341,250.785,436.773,252.352,434.841,252.352z"/>
		</g>
		<circle style="fill:#FFFFFF;" cx="446.756" cy="248.851" r="3.257"/>
	</g>
	<path style="fill:#35909F;" d="M264.287,303.979c0,1.79-1.451,3.242-3.241,3.242c-1.79,0-3.241-1.451-3.241-3.242
		c0-1.79,1.451-3.241,3.241-3.241C262.836,300.738,264.287,302.189,264.287,303.979z"/>
	<path style="fill:#FFFFFF;" d="M204.138,222.073c0,1.461-1.184,2.646-2.646,2.646c-1.461,0-2.646-1.185-2.646-2.646
		s1.185-2.646,2.646-2.646C202.954,219.427,204.138,220.612,204.138,222.073z"/>
	<g>
		<g>
			<path style="fill:#8FD5FB;" d="M332.155,208.28h-21.19c-1.933,0-3.5-1.567-3.5-3.5c0-1.933,1.567-3.5,3.5-3.5h21.19
				c1.933,0,3.5,1.567,3.5,3.5C335.655,206.713,334.088,208.28,332.155,208.28z"/>
		</g>
		<g>
			<path style="fill:#8FD5FB;" d="M299.001,208.28h-5.5c-1.933,0-3.5-1.567-3.5-3.5c0-1.933,1.567-3.5,3.5-3.5h5.5
				c1.933,0,3.5,1.567,3.5,3.5C302.501,206.713,300.934,208.28,299.001,208.28z"/>
		</g>
	</g>
	<g>
		<path style="fill:#FFFFFF;" d="M270.316,76.39h-1.156v-1.156c0-0.829-0.671-1.5-1.5-1.5c-0.829,0-1.5,0.671-1.5,1.5v1.156h-1.156
			c-0.829,0-1.5,0.671-1.5,1.5c0,0.829,0.671,1.5,1.5,1.5h1.156v1.155c0,0.829,0.671,1.5,1.5,1.5c0.829,0,1.5-0.671,1.5-1.5V79.39
			h1.156c0.829,0,1.5-0.671,1.5-1.5C271.816,77.061,271.145,76.39,270.316,76.39z"/>
		<path style="fill:#FFFFFF;" d="M192.649,240.408h-1.156v-1.156c0-0.829-0.671-1.5-1.5-1.5c-0.829,0-1.5,0.671-1.5,1.5v1.156
			h-1.156c-0.829,0-1.5,0.671-1.5,1.5s0.671,1.5,1.5,1.5h1.156v1.155c0,0.829,0.671,1.5,1.5,1.5c0.829,0,1.5-0.671,1.5-1.5v-1.155
			h1.156c0.829,0,1.5-0.671,1.5-1.5S193.478,240.408,192.649,240.408z"/>
		<path style="fill:#FFFFFF;" d="M327.944,239.888h-0.97v-0.97c0-0.695-0.563-1.259-1.259-1.259s-1.259,0.563-1.259,1.259v0.97
			h-0.97c-0.695,0-1.259,0.563-1.259,1.259s0.563,1.259,1.259,1.259h0.97v0.969c0,0.695,0.563,1.259,1.259,1.259
			s1.259-0.563,1.259-1.259v-0.969h0.97c0.695,0,1.259-0.563,1.259-1.259S328.639,239.888,327.944,239.888z"/>
		<path style="fill:#FFFFFF;" d="M122.114,302.608h-1.156v-1.156c0-0.829-0.671-1.5-1.5-1.5c-0.829,0-1.5,0.671-1.5,1.5v1.156
			h-1.156c-0.829,0-1.5,0.671-1.5,1.5s0.671,1.5,1.5,1.5h1.156v1.155c0,0.829,0.671,1.5,1.5,1.5c0.829,0,1.5-0.671,1.5-1.5v-1.155
			h1.156c0.829,0,1.5-0.671,1.5-1.5S122.943,302.608,122.114,302.608z"/>
		<path style="fill:#FFFFFF;" d="M376.698,349.324h-1.156v-1.156c0-0.829-0.671-1.5-1.5-1.5c-0.829,0-1.5,0.671-1.5,1.5v1.156
			h-1.156c-0.829,0-1.5,0.671-1.5,1.5c0,0.829,0.671,1.5,1.5,1.5h1.156v1.155c0,0.829,0.671,1.5,1.5,1.5c0.829,0,1.5-0.671,1.5-1.5
			v-1.155h1.156c0.829,0,1.5-0.671,1.5-1.5C378.198,349.995,377.526,349.324,376.698,349.324z"/>
		<path style="fill:#FFFFFF;" d="M65.877,118.147h-1.156v-1.156c0-0.829-0.671-1.5-1.5-1.5s-1.5,0.671-1.5,1.5v1.156h-1.156
			c-0.829,0-1.5,0.671-1.5,1.5c0,0.829,0.671,1.5,1.5,1.5h1.156v1.155c0,0.829,0.671,1.5,1.5,1.5s1.5-0.671,1.5-1.5v-1.155h1.156
			c0.829,0,1.5-0.671,1.5-1.5C67.377,118.819,66.705,118.147,65.877,118.147z"/>
		<path style="fill:#35909F;" d="M417.868,423.638h-0.854v-0.854c0-0.612-0.496-1.109-1.109-1.109c-0.612,0-1.109,0.496-1.109,1.109
			v0.854h-0.854c-0.612,0-1.109,0.496-1.109,1.109s0.496,1.109,1.109,1.109h0.854v0.854c0,0.612,0.496,1.109,1.109,1.109
			c0.612,0,1.109-0.496,1.109-1.109v-0.854h0.854c0.612,0,1.109-0.496,1.109-1.109S418.481,423.638,417.868,423.638z"/>
		<path style="fill:#8FD5FB;" d="M455.011,215.326h-0.819v-0.819c0-0.587-0.476-1.063-1.063-1.063c-0.587,0-1.063,0.476-1.063,1.063
			v0.819h-0.819c-0.587,0-1.063,0.476-1.063,1.063c0,0.587,0.476,1.063,1.063,1.063h0.819v0.819c0,0.587,0.476,1.063,1.063,1.063
			c0.587,0,1.063-0.476,1.063-1.063v-0.819h0.819c0.587,0,1.063-0.476,1.063-1.063C456.075,215.802,455.599,215.326,455.011,215.326
			z"/>
		<path style="fill:#35909F;" d="M131.164,60.465h-0.793v-0.793c0-0.569-0.461-1.03-1.03-1.03c-0.569,0-1.03,0.461-1.03,1.03v0.793
			h-0.794c-0.569,0-1.03,0.461-1.03,1.03c0,0.569,0.461,1.03,1.03,1.03h0.794v0.793c0,0.569,0.461,1.03,1.03,1.03
			c0.569,0,1.03-0.461,1.03-1.03v-0.793h0.793c0.569,0,1.03-0.461,1.03-1.03C132.194,60.926,131.733,60.465,131.164,60.465z"/>
		<path style="fill:#8FD5FB;" d="M63.7,355.286h-0.786V354.5c0-0.564-0.457-1.021-1.021-1.021c-0.564,0-1.021,0.457-1.021,1.021
			v0.786h-0.786c-0.564,0-1.021,0.457-1.021,1.021c0,0.564,0.457,1.021,1.021,1.021h0.786v0.786c0,0.564,0.457,1.021,1.021,1.021
			c0.564,0,1.021-0.457,1.021-1.021v-0.786H63.7c0.564,0,1.021-0.457,1.021-1.021C64.721,355.743,64.264,355.286,63.7,355.286z"/>
		<path style="fill:#FFFFFF;" d="M166.126,426.081h-1.156v-1.156c0-0.829-0.671-1.5-1.5-1.5c-0.829,0-1.5,0.671-1.5,1.5v1.156
			h-1.156c-0.829,0-1.5,0.671-1.5,1.5c0,0.829,0.671,1.5,1.5,1.5h1.156v1.155c0,0.829,0.671,1.5,1.5,1.5c0.829,0,1.5-0.671,1.5-1.5
			v-1.155h1.156c0.829,0,1.5-0.671,1.5-1.5C167.626,426.752,166.954,426.081,166.126,426.081z"/>
		<g>
			<g>
				<path style="fill:#35909F;" d="M410.903,166.259h-21.845c-1.933,0-3.5-1.567-3.5-3.5c0-1.933,1.567-3.5,3.5-3.5h21.845
					c1.933,0,3.5,1.567,3.5,3.5C414.403,164.692,412.836,166.259,410.903,166.259z"/>
			</g>
			<path style="fill:#35909F;" d="M433.341,161.783h-1.156v-1.156c0-0.829-0.671-1.5-1.5-1.5s-1.5,0.671-1.5,1.5v1.156h-1.156
				c-0.829,0-1.5,0.671-1.5,1.5s0.671,1.5,1.5,1.5h1.156v1.155c0,0.829,0.671,1.5,1.5,1.5s1.5-0.671,1.5-1.5v-1.155h1.156
				c0.829,0,1.5-0.671,1.5-1.5S434.17,161.783,433.341,161.783z"/>
		</g>
		<path style="fill:#FFFFFF;" d="M61.721,220.906h-1.156v-1.156c0-0.829-0.671-1.5-1.5-1.5c-0.829,0-1.5,0.671-1.5,1.5v1.156H56.41
			c-0.829,0-1.5,0.671-1.5,1.5s0.671,1.5,1.5,1.5h1.156v1.155c0,0.829,0.671,1.5,1.5,1.5c0.829,0,1.5-0.671,1.5-1.5v-1.155h1.156
			c0.829,0,1.5-0.671,1.5-1.5S62.55,220.906,61.721,220.906z"/>
		<path style="fill:#8FD5FB;" d="M437.497,59.995h-1.156v-1.156c0-0.829-0.671-1.5-1.5-1.5c-0.829,0-1.5,0.671-1.5,1.5v1.156h-1.156
			c-0.829,0-1.5,0.671-1.5,1.5c0,0.829,0.671,1.5,1.5,1.5h1.156v1.155c0,0.829,0.671,1.5,1.5,1.5c0.829,0,1.5-0.671,1.5-1.5v-1.155
			h1.156c0.829,0,1.5-0.671,1.5-1.5C438.997,60.667,438.326,59.995,437.497,59.995z"/>
		<path style="fill:#8FD5FB;" d="M203.133,104.61h-1.156v-1.156c0-0.829-0.671-1.5-1.5-1.5c-0.829,0-1.5,0.671-1.5,1.5v1.156h-1.156
			c-0.829,0-1.5,0.671-1.5,1.5s0.671,1.5,1.5,1.5h1.156v1.155c0,0.829,0.671,1.5,1.5,1.5c0.829,0,1.5-0.671,1.5-1.5v-1.155h1.156
			c0.829,0,1.5-0.671,1.5-1.5S203.962,104.61,203.133,104.61z"/>
	</g>
	<g>
		<path style="fill:#FFFFFF;" d="M439.503,217.828c-1.032-3.218-4.046-5.549-7.606-5.549c-0.115,0-0.227,0.012-0.34,0.017
			c-1.095-4.038-4.775-7.012-9.16-7.012c-0.35,0-0.695,0.022-1.035,0.059c-2.21-4.713-6.994-7.979-12.544-7.979
			c-4.604,0-8.68,2.248-11.198,5.704c-1.298-0.459-2.693-0.712-4.148-0.712c-6.864,0-12.428,5.564-12.428,12.427
			c0,1.05,0.132,2.069,0.377,3.043H439.503z"/>
		<path style="fill:#8FD5FB;" d="M414.646,207.435c0.442-0.048,0.89-0.076,1.345-0.076c5.695,0,10.477,3.863,11.899,9.109
			c0.148-0.006,0.293-0.022,0.442-0.022c1.881,0,3.641,0.508,5.161,1.383h6.01c-1.032-3.218-4.046-5.549-7.606-5.549
			c-0.115,0-0.227,0.012-0.34,0.017c-1.095-4.038-4.775-7.012-9.16-7.012c-0.35,0-0.695,0.022-1.035,0.059
			c-2.21-4.713-6.994-7.979-12.544-7.979c-1.563,0-3.063,0.265-4.465,0.742C408.902,199.719,412.614,203.101,414.646,207.435z"/>
	</g>
</g>
<g id="DESIGNED_BY_FREEPIK">
	<g style="opacity:0.75;">
		<g>
			<g>
				<path style="fill:#35909F;" d="M179.552,472.297v-0.161c-0.218,0.249-0.433,0.452-0.644,0.608
					c-0.212,0.157-0.441,0.276-0.689,0.356c-0.247,0.082-0.517,0.122-0.81,0.122c-0.388,0-0.747-0.082-1.078-0.246
					c-0.33-0.164-0.616-0.399-0.857-0.704c-0.242-0.305-0.425-0.662-0.549-1.074c-0.124-0.412-0.187-0.857-0.187-1.335
					c0-1.013,0.247-1.804,0.742-2.369c0.495-0.565,1.146-0.848,1.953-0.848c0.467,0,0.861,0.081,1.181,0.24
					c0.321,0.16,0.633,0.408,0.938,0.739v-2.392c0-0.333,0.066-0.583,0.199-0.754c0.132-0.17,0.321-0.255,0.567-0.255
					c0.245,0,0.434,0.078,0.567,0.234c0.133,0.157,0.199,0.386,0.199,0.691v7.147c0,0.309-0.071,0.54-0.214,0.695
					c-0.142,0.154-0.326,0.231-0.552,0.231c-0.221,0-0.405-0.08-0.549-0.24C179.624,472.822,179.552,472.594,179.552,472.297z
					 M176.364,469.917c0,0.439,0.068,0.813,0.205,1.122c0.137,0.309,0.324,0.541,0.561,0.697c0.238,0.157,0.497,0.236,0.778,0.236
					c0.285,0,0.545-0.074,0.781-0.223c0.235-0.148,0.423-0.376,0.564-0.682c0.141-0.307,0.21-0.691,0.21-1.149
					c0-0.432-0.07-0.803-0.21-1.114c-0.14-0.31-0.33-0.547-0.57-0.712c-0.24-0.164-0.502-0.245-0.786-0.245
					c-0.297,0-0.562,0.084-0.795,0.252c-0.234,0.168-0.415,0.409-0.543,0.724C176.428,469.136,176.364,469.501,176.364,469.917z"/>
				<path style="fill:#35909F;" d="M186.698,470.327h-3.169c0.004,0.367,0.078,0.692,0.223,0.973
					c0.144,0.281,0.336,0.493,0.576,0.635c0.24,0.143,0.504,0.213,0.793,0.213c0.194,0,0.371-0.022,0.531-0.067
					c0.16-0.046,0.315-0.117,0.466-0.214c0.15-0.096,0.289-0.201,0.415-0.312c0.126-0.111,0.29-0.262,0.493-0.452
					c0.083-0.071,0.202-0.107,0.357-0.107c0.166,0,0.3,0.046,0.403,0.137c0.103,0.092,0.155,0.219,0.155,0.386
					c0,0.146-0.058,0.317-0.172,0.513c-0.116,0.196-0.289,0.384-0.52,0.564c-0.232,0.18-0.522,0.329-0.873,0.448
					c-0.35,0.119-0.753,0.178-1.208,0.178c-1.04,0-1.85-0.297-2.428-0.891c-0.578-0.593-0.866-1.399-0.866-2.416
					c0-0.479,0.071-0.924,0.213-1.332c0.143-0.41,0.351-0.761,0.623-1.054c0.273-0.293,0.609-0.517,1.009-0.674
					c0.4-0.156,0.843-0.234,1.33-0.234c0.633,0,1.176,0.133,1.629,0.4c0.454,0.267,0.794,0.612,1.019,1.035
					c0.225,0.424,0.339,0.856,0.339,1.294c0,0.408-0.117,0.672-0.35,0.793C187.45,470.266,187.122,470.327,186.698,470.327z
					 M183.528,469.407h2.939c-0.039-0.554-0.19-0.969-0.448-1.244c-0.259-0.275-0.6-0.413-1.024-0.413
					c-0.404,0-0.735,0.139-0.994,0.418C183.741,468.447,183.584,468.861,183.528,469.407z"/>
				<path style="fill:#35909F;" d="M194.082,471.104c0,0.447-0.108,0.831-0.327,1.149c-0.217,0.319-0.539,0.56-0.965,0.724
					c-0.425,0.164-0.943,0.246-1.552,0.246c-0.582,0-1.08-0.089-1.496-0.267c-0.415-0.178-0.722-0.401-0.92-0.667
					c-0.198-0.268-0.297-0.535-0.297-0.805c0-0.178,0.063-0.33,0.19-0.456c0.126-0.126,0.287-0.19,0.481-0.19
					c0.17,0,0.3,0.042,0.391,0.125c0.091,0.083,0.178,0.2,0.261,0.35c0.166,0.29,0.366,0.504,0.597,0.648
					c0.231,0.142,0.547,0.214,0.947,0.214c0.324,0,0.59-0.073,0.798-0.217c0.208-0.145,0.311-0.31,0.311-0.496
					c0-0.285-0.107-0.492-0.324-0.622c-0.216-0.131-0.571-0.256-1.066-0.375c-0.558-0.138-1.012-0.284-1.362-0.436
					c-0.35-0.151-0.63-0.353-0.84-0.602c-0.21-0.25-0.315-0.557-0.315-0.92c0-0.324,0.097-0.631,0.291-0.92
					c0.194-0.288,0.48-0.519,0.859-0.691c0.377-0.173,0.833-0.259,1.367-0.259c0.419,0,0.797,0.043,1.131,0.131
					c0.335,0.086,0.614,0.204,0.837,0.35c0.224,0.146,0.394,0.308,0.51,0.486c0.117,0.178,0.175,0.352,0.175,0.523
					c0,0.185-0.062,0.338-0.186,0.457c-0.125,0.118-0.301,0.178-0.532,0.178c-0.166,0-0.308-0.048-0.424-0.143
					c-0.117-0.095-0.25-0.237-0.401-0.427c-0.123-0.158-0.266-0.285-0.433-0.38c-0.166-0.095-0.392-0.142-0.677-0.142
					c-0.293,0-0.536,0.062-0.73,0.187c-0.194,0.124-0.291,0.279-0.291,0.465c0,0.171,0.071,0.31,0.213,0.419
					c0.143,0.109,0.334,0.2,0.576,0.27c0.242,0.071,0.573,0.158,0.997,0.261c0.502,0.123,0.912,0.27,1.231,0.44
					c0.318,0.17,0.56,0.371,0.725,0.603C194,470.543,194.082,470.807,194.082,471.104z"/>
				<path style="fill:#35909F;" d="M195.738,465.881c-0.226,0-0.418-0.07-0.579-0.208c-0.16-0.138-0.24-0.334-0.24-0.588
					c0-0.23,0.082-0.418,0.246-0.567c0.164-0.149,0.355-0.223,0.573-0.223c0.21,0,0.396,0.067,0.558,0.202
					c0.162,0.135,0.244,0.33,0.244,0.588c0,0.25-0.08,0.444-0.238,0.585C196.143,465.81,195.955,465.881,195.738,465.881z
					 M196.539,467.554v4.683c0,0.325-0.077,0.571-0.232,0.737c-0.155,0.166-0.35,0.249-0.588,0.249
					c-0.238,0-0.431-0.085-0.579-0.255c-0.149-0.17-0.222-0.414-0.222-0.73v-4.636c0-0.32,0.074-0.562,0.222-0.724
					c0.148-0.162,0.341-0.243,0.579-0.243c0.238,0,0.433,0.081,0.588,0.243C196.462,467.04,196.539,467.266,196.539,467.554z"/>
				<path style="fill:#35909F;" d="M203.639,467.822v4.707c0,0.538-0.058,1.001-0.173,1.39c-0.114,0.387-0.298,0.708-0.552,0.961
					c-0.253,0.253-0.585,0.441-0.994,0.563c-0.41,0.123-0.919,0.184-1.529,0.184c-0.558,0-1.056-0.078-1.496-0.234
					c-0.439-0.157-0.777-0.358-1.015-0.605c-0.237-0.247-0.357-0.502-0.357-0.763c0-0.198,0.068-0.359,0.202-0.483
					c0.134-0.125,0.297-0.187,0.487-0.187c0.237,0,0.445,0.105,0.623,0.314c0.087,0.107,0.177,0.215,0.27,0.324
					c0.093,0.109,0.197,0.202,0.309,0.28c0.113,0.076,0.249,0.134,0.406,0.172c0.158,0.037,0.341,0.056,0.546,0.056
					c0.42,0,0.745-0.058,0.977-0.175c0.232-0.117,0.394-0.28,0.487-0.49c0.093-0.209,0.147-0.433,0.163-0.673
					c0.016-0.24,0.027-0.624,0.035-1.155c-0.25,0.349-0.537,0.615-0.864,0.796c-0.326,0.182-0.715,0.273-1.166,0.273
					c-0.542,0-1.016-0.139-1.422-0.416c-0.405-0.277-0.717-0.665-0.934-1.163c-0.218-0.499-0.326-1.074-0.326-1.727
					c0-0.487,0.066-0.927,0.198-1.318c0.133-0.392,0.322-0.723,0.567-0.992c0.245-0.269,0.528-0.472,0.849-0.608
					c0.321-0.136,0.673-0.204,1.057-0.204c0.459,0,0.857,0.089,1.193,0.264c0.336,0.177,0.649,0.453,0.938,0.829v-0.22
					c0-0.281,0.069-0.498,0.208-0.653c0.139-0.154,0.317-0.231,0.535-0.231c0.313,0,0.52,0.103,0.623,0.306
					C203.587,467.144,203.639,467.438,203.639,467.822z M198.943,469.876c0,0.657,0.143,1.154,0.43,1.49
					c0.287,0.337,0.658,0.505,1.113,0.505c0.269,0,0.523-0.073,0.762-0.217c0.24-0.145,0.435-0.363,0.585-0.653
					c0.15-0.291,0.226-0.644,0.226-1.06c0-0.66-0.145-1.176-0.436-1.543c-0.291-0.368-0.674-0.552-1.149-0.552
					c-0.463,0-0.834,0.176-1.113,0.529C199.082,468.726,198.943,469.227,198.943,469.876z"/>
				<path style="fill:#35909F;" d="M206.214,467.531v0.196c0.285-0.376,0.596-0.652,0.935-0.828
					c0.338-0.176,0.727-0.264,1.166-0.264c0.427,0,0.809,0.093,1.146,0.28c0.336,0.186,0.588,0.449,0.753,0.789
					c0.108,0.198,0.176,0.413,0.208,0.642c0.032,0.23,0.048,0.522,0.048,0.879v3.015c0,0.325-0.075,0.571-0.223,0.737
					c-0.148,0.166-0.341,0.249-0.579,0.249c-0.242,0-0.437-0.085-0.588-0.255c-0.151-0.17-0.225-0.414-0.225-0.73v-2.701
					c0-0.534-0.074-0.943-0.223-1.226c-0.149-0.283-0.444-0.425-0.888-0.425c-0.288,0-0.552,0.086-0.789,0.258
					c-0.237,0.173-0.412,0.41-0.522,0.71c-0.079,0.242-0.119,0.692-0.119,1.353v2.03c0,0.328-0.077,0.576-0.228,0.74
					c-0.152,0.164-0.349,0.246-0.59,0.246c-0.234,0-0.426-0.085-0.576-0.255c-0.15-0.17-0.225-0.414-0.225-0.73v-4.683
					c0-0.309,0.067-0.54,0.202-0.692c0.135-0.152,0.319-0.228,0.552-0.228c0.143,0,0.272,0.034,0.387,0.101
					c0.114,0.068,0.207,0.169,0.276,0.302C206.179,467.172,206.214,467.337,206.214,467.531z"/>
				<path style="fill:#35909F;" d="M216.073,470.327h-3.17c0.004,0.367,0.078,0.692,0.223,0.973
					c0.144,0.281,0.336,0.493,0.576,0.635c0.239,0.143,0.503,0.213,0.792,0.213c0.194,0,0.371-0.022,0.532-0.067
					c0.16-0.046,0.315-0.117,0.466-0.214c0.15-0.096,0.288-0.201,0.416-0.312c0.126-0.111,0.29-0.262,0.492-0.452
					c0.083-0.071,0.202-0.107,0.356-0.107c0.166,0,0.301,0.046,0.404,0.137c0.103,0.092,0.154,0.219,0.154,0.386
					c0,0.146-0.057,0.317-0.172,0.513c-0.115,0.196-0.288,0.384-0.52,0.564c-0.232,0.18-0.522,0.329-0.872,0.448
					c-0.35,0.119-0.753,0.178-1.208,0.178c-1.041,0-1.85-0.297-2.428-0.891c-0.577-0.593-0.866-1.399-0.866-2.416
					c0-0.479,0.071-0.924,0.214-1.332c0.143-0.41,0.351-0.761,0.624-1.054c0.273-0.293,0.609-0.517,1.009-0.674
					c0.399-0.156,0.843-0.234,1.33-0.234c0.633,0,1.176,0.133,1.629,0.4c0.453,0.267,0.793,0.612,1.019,1.035
					c0.225,0.424,0.338,0.856,0.338,1.294c0,0.408-0.117,0.672-0.35,0.793C216.825,470.266,216.497,470.327,216.073,470.327z
					 M212.903,469.407h2.938c-0.039-0.554-0.189-0.969-0.448-1.244c-0.259-0.275-0.6-0.413-1.024-0.413
					c-0.404,0-0.736,0.139-0.995,0.418C213.115,468.447,212.959,468.861,212.903,469.407z"/>
				<path style="fill:#35909F;" d="M222.679,472.297v-0.161c-0.218,0.249-0.432,0.452-0.644,0.608
					c-0.212,0.157-0.441,0.276-0.688,0.356c-0.247,0.082-0.517,0.122-0.81,0.122c-0.389,0-0.747-0.082-1.078-0.246
					c-0.331-0.164-0.616-0.399-0.858-0.704c-0.242-0.305-0.424-0.662-0.549-1.074c-0.125-0.412-0.187-0.857-0.187-1.335
					c0-1.013,0.247-1.804,0.742-2.369c0.495-0.565,1.146-0.848,1.953-0.848c0.467,0,0.861,0.081,1.181,0.24
					c0.32,0.16,0.633,0.408,0.938,0.739v-2.392c0-0.333,0.066-0.583,0.199-0.754c0.132-0.17,0.322-0.255,0.567-0.255
					c0.245,0,0.434,0.078,0.567,0.234c0.133,0.157,0.199,0.386,0.199,0.691v7.147c0,0.309-0.071,0.54-0.214,0.695
					c-0.143,0.154-0.326,0.231-0.552,0.231c-0.222,0-0.405-0.08-0.549-0.24C222.751,472.822,222.679,472.594,222.679,472.297z
					 M219.492,469.917c0,0.439,0.068,0.813,0.204,1.122c0.137,0.309,0.324,0.541,0.562,0.697c0.237,0.157,0.496,0.236,0.777,0.236
					c0.285,0,0.546-0.074,0.781-0.223c0.236-0.148,0.424-0.376,0.564-0.682c0.141-0.307,0.211-0.691,0.211-1.149
					c0-0.432-0.07-0.803-0.211-1.114c-0.14-0.31-0.33-0.547-0.57-0.712c-0.24-0.164-0.502-0.245-0.787-0.245
					c-0.296,0-0.562,0.084-0.795,0.252c-0.233,0.168-0.414,0.409-0.543,0.724C219.556,469.136,219.492,469.501,219.492,469.917z"/>
				<path style="fill:#35909F;" d="M229.303,465.15v2.475c0.304-0.316,0.615-0.559,0.932-0.727c0.316-0.168,0.709-0.252,1.175-0.252
					c0.538,0,1.01,0.128,1.416,0.382c0.405,0.256,0.72,0.626,0.944,1.111c0.223,0.484,0.336,1.06,0.336,1.725
					c0,0.491-0.063,0.94-0.187,1.35c-0.125,0.409-0.306,0.765-0.543,1.065c-0.238,0.301-0.525,0.534-0.864,0.698
					c-0.339,0.164-0.712,0.246-1.119,0.246c-0.25,0-0.484-0.029-0.703-0.089c-0.22-0.059-0.407-0.137-0.561-0.234
					c-0.154-0.096-0.286-0.197-0.395-0.3c-0.109-0.102-0.253-0.258-0.431-0.463v0.161c0,0.305-0.073,0.535-0.22,0.692
					c-0.146,0.156-0.332,0.234-0.558,0.234c-0.23,0-0.413-0.077-0.549-0.234c-0.137-0.157-0.205-0.388-0.205-0.692v-7.076
					c0-0.328,0.066-0.577,0.198-0.745c0.133-0.168,0.318-0.252,0.555-0.252c0.25,0,0.441,0.08,0.576,0.24
					C229.235,464.625,229.303,464.853,229.303,465.15z M229.38,469.965c0,0.645,0.147,1.14,0.442,1.486
					c0.295,0.347,0.682,0.521,1.161,0.521c0.407,0,0.759-0.177,1.053-0.532c0.295-0.355,0.442-0.862,0.442-1.523
					c0-0.427-0.061-0.796-0.184-1.104c-0.123-0.309-0.297-0.547-0.522-0.715c-0.226-0.168-0.489-0.252-0.79-0.252
					c-0.309,0-0.584,0.084-0.825,0.252c-0.242,0.168-0.431,0.411-0.57,0.73C229.449,469.146,229.38,469.525,229.38,469.965z"/>
				<path style="fill:#35909F;" d="M236.207,473.425l0.148-0.363l-1.995-5.022c-0.122-0.288-0.184-0.499-0.184-0.629
					c0-0.139,0.036-0.267,0.107-0.385c0.071-0.119,0.169-0.214,0.294-0.285c0.125-0.072,0.255-0.107,0.389-0.107
					c0.233,0,0.409,0.074,0.529,0.223c0.119,0.148,0.223,0.361,0.314,0.638l1.372,3.989l1.3-3.71c0.103-0.3,0.196-0.536,0.279-0.706
					c0.083-0.17,0.171-0.285,0.264-0.344c0.093-0.06,0.225-0.09,0.395-0.09c0.123,0,0.24,0.032,0.353,0.098
					c0.113,0.065,0.2,0.153,0.261,0.264c0.061,0.111,0.092,0.227,0.092,0.35c-0.016,0.075-0.041,0.182-0.077,0.321
					c-0.036,0.138-0.079,0.28-0.13,0.421l-2.113,5.533c-0.183,0.486-0.361,0.868-0.535,1.145c-0.174,0.277-0.404,0.491-0.692,0.638
					c-0.287,0.149-0.674,0.223-1.161,0.223c-0.475,0-0.831-0.051-1.068-0.154c-0.238-0.104-0.356-0.292-0.356-0.564
					c0-0.186,0.056-0.33,0.169-0.43c0.112-0.101,0.28-0.152,0.501-0.152c0.087,0,0.173,0.012,0.256,0.037
					c0.103,0.023,0.192,0.035,0.267,0.035c0.186,0,0.333-0.027,0.44-0.084c0.106-0.055,0.202-0.151,0.288-0.288
					C235.998,473.892,236.096,473.69,236.207,473.425z"/>
			</g>
			<g>
				<path style="fill:#35909F;" d="M259.683,466.774h0.386v-0.487c0-0.509,0.062-0.911,0.192-1.211
					c0.128-0.299,0.347-0.516,0.654-0.653c0.307-0.135,0.727-0.204,1.26-0.204c0.95,0,1.42,0.229,1.42,0.697
					c0,0.149-0.049,0.278-0.15,0.384c-0.096,0.106-0.214,0.16-0.349,0.16c-0.062,0-0.174-0.012-0.329-0.037
					c-0.148-0.021-0.283-0.035-0.389-0.035c-0.292,0-0.479,0.088-0.566,0.259c-0.079,0.172-0.122,0.418-0.122,0.74v0.386h0.396
					c0.62,0,0.926,0.185,0.926,0.56c0,0.262-0.079,0.431-0.245,0.503c-0.163,0.071-0.39,0.107-0.68,0.107h-0.396v4.294
					c0,0.319-0.075,0.563-0.231,0.73c-0.151,0.17-0.346,0.254-0.589,0.254c-0.229,0-0.419-0.084-0.574-0.254
					c-0.153-0.167-0.228-0.411-0.228-0.73v-4.294h-0.446c-0.243,0-0.427-0.052-0.558-0.164c-0.131-0.107-0.197-0.25-0.197-0.424
					C258.869,466.967,259.14,466.774,259.683,466.774"/>
				<path style="fill:#35909F;" d="M264.989,470.883v1.355c0,0.327-0.083,0.574-0.234,0.737c-0.154,0.166-0.349,0.247-0.586,0.247
					c-0.239,0-0.43-0.082-0.579-0.25c-0.148-0.165-0.225-0.41-0.225-0.734v-4.514c0-0.729,0.262-1.093,0.788-1.093
					c0.271,0,0.464,0.084,0.583,0.255c0.119,0.171,0.184,0.421,0.198,0.755c0.192-0.334,0.39-0.584,0.593-0.755
					c0.208-0.171,0.477-0.255,0.819-0.255c0.343,0,0.67,0.084,0.991,0.255c0.322,0.171,0.482,0.398,0.482,0.678
					c0,0.197-0.069,0.362-0.204,0.488c-0.137,0.131-0.284,0.195-0.441,0.195c-0.062,0-0.207-0.039-0.433-0.112
					c-0.228-0.071-0.43-0.108-0.602-0.108c-0.237,0-0.433,0.064-0.582,0.186c-0.151,0.128-0.269,0.311-0.353,0.554
					c-0.081,0.247-0.137,0.541-0.17,0.878C265.003,469.984,264.989,470.397,264.989,470.883"/>
				<path style="fill:#35909F;" d="M272.44,470.325h-3.171c0.005,0.367,0.077,0.694,0.222,0.974
					c0.147,0.279,0.337,0.491,0.578,0.635c0.24,0.142,0.502,0.212,0.793,0.212c0.194,0,0.371-0.021,0.531-0.07
					c0.159-0.043,0.316-0.116,0.466-0.213c0.151-0.095,0.288-0.199,0.415-0.313c0.126-0.109,0.292-0.26,0.494-0.449
					c0.084-0.071,0.203-0.109,0.355-0.109c0.168,0,0.301,0.046,0.406,0.139c0.104,0.092,0.152,0.219,0.152,0.386
					c0,0.147-0.055,0.317-0.167,0.512c-0.117,0.198-0.289,0.385-0.522,0.566c-0.234,0.178-0.524,0.329-0.873,0.446
					c-0.35,0.119-0.754,0.179-1.207,0.179c-1.044,0-1.852-0.296-2.429-0.889c-0.578-0.595-0.87-1.401-0.87-2.418
					c0-0.479,0.073-0.924,0.217-1.334c0.14-0.411,0.349-0.76,0.624-1.055c0.272-0.294,0.606-0.518,1.008-0.674
					c0.399-0.156,0.842-0.234,1.33-0.234c0.632,0,1.175,0.134,1.629,0.404c0.452,0.264,0.796,0.61,1.018,1.034
					c0.226,0.426,0.339,0.855,0.339,1.296c0,0.405-0.118,0.669-0.351,0.791C273.191,470.265,272.863,470.325,272.44,470.325
					 M269.268,469.404h2.938c-0.039-0.553-0.186-0.969-0.446-1.242c-0.261-0.276-0.599-0.413-1.025-0.413
					c-0.403,0-0.735,0.137-0.995,0.418C269.481,468.447,269.323,468.858,269.268,469.404"/>
				<path style="fill:#35909F;" d="M279.182,470.325h-3.171c0.004,0.367,0.078,0.694,0.221,0.974
					c0.145,0.279,0.337,0.491,0.576,0.635c0.239,0.142,0.504,0.212,0.795,0.212c0.192,0,0.37-0.021,0.528-0.07
					c0.162-0.043,0.316-0.116,0.469-0.213c0.151-0.095,0.287-0.199,0.415-0.313c0.125-0.109,0.29-0.26,0.493-0.449
					c0.084-0.071,0.204-0.109,0.355-0.109c0.168,0,0.302,0.046,0.407,0.139c0.103,0.092,0.15,0.219,0.15,0.386
					c0,0.147-0.054,0.317-0.171,0.512c-0.11,0.198-0.284,0.385-0.519,0.566c-0.231,0.178-0.525,0.329-0.872,0.446
					c-0.349,0.119-0.755,0.179-1.209,0.179c-1.042,0-1.849-0.296-2.429-0.889c-0.577-0.595-0.868-1.401-0.868-2.418
					c0-0.479,0.073-0.924,0.217-1.334c0.142-0.411,0.349-0.76,0.623-1.055c0.272-0.294,0.608-0.518,1.009-0.674
					c0.398-0.156,0.844-0.234,1.331-0.234c0.63,0,1.174,0.134,1.633,0.404c0.45,0.264,0.791,0.61,1.013,1.034
					c0.225,0.426,0.341,0.855,0.341,1.296c0,0.405-0.12,0.669-0.351,0.791C279.932,470.265,279.604,470.325,279.182,470.325
					 M276.011,469.404h2.938c-0.04-0.553-0.19-0.969-0.447-1.242c-0.263-0.276-0.601-0.413-1.027-0.413
					c-0.403,0-0.735,0.137-0.996,0.418C276.222,468.447,276.063,468.858,276.011,469.404"/>
				<path style="fill:#35909F;" d="M282.732,467.543v0.194c0.304-0.375,0.621-0.651,0.953-0.828
					c0.324-0.178,0.699-0.267,1.114-0.267c0.497,0,0.96,0.13,1.379,0.386c0.419,0.259,0.749,0.635,0.993,1.129
					c0.244,0.497,0.366,1.081,0.366,1.758c0,0.497-0.07,0.957-0.21,1.376c-0.14,0.418-0.336,0.767-0.58,1.05
					c-0.246,0.281-0.535,0.501-0.868,0.654c-0.339,0.151-0.695,0.227-1.08,0.227c-0.461,0-0.853-0.093-1.166-0.28
					c-0.314-0.182-0.614-0.458-0.901-0.816v2.433c0,0.71-0.26,1.069-0.778,1.069c-0.306,0-0.505-0.092-0.607-0.275
					c-0.095-0.187-0.146-0.452-0.146-0.807v-6.996c0-0.309,0.067-0.537,0.2-0.692c0.134-0.15,0.32-0.228,0.553-0.228
					c0.231,0,0.416,0.078,0.56,0.234C282.661,467.023,282.732,467.246,282.732,467.543 M285.909,469.897
					c0-0.428-0.067-0.796-0.197-1.102c-0.131-0.308-0.312-0.542-0.541-0.705c-0.229-0.164-0.489-0.248-0.77-0.248
					c-0.446,0-0.824,0.178-1.13,0.527c-0.308,0.354-0.462,0.872-0.462,1.558c0,0.641,0.153,1.146,0.46,1.504
					c0.305,0.358,0.679,0.536,1.133,0.536c0.268,0,0.519-0.079,0.748-0.233c0.232-0.158,0.416-0.392,0.552-0.704
					C285.839,470.719,285.909,470.34,285.909,469.897"/>
				<path style="fill:#35909F;" d="M289.169,465.876c-0.226,0-0.418-0.071-0.577-0.209c-0.162-0.139-0.242-0.333-0.242-0.585
					c0-0.23,0.082-0.419,0.248-0.569c0.164-0.147,0.354-0.222,0.571-0.222c0.212,0,0.397,0.067,0.559,0.2
					c0.162,0.137,0.244,0.334,0.244,0.591c0,0.25-0.079,0.444-0.236,0.585C289.577,465.805,289.389,465.876,289.169,465.876
					 M289.972,467.551v4.689c0,0.322-0.077,0.568-0.231,0.732c-0.156,0.168-0.35,0.25-0.588,0.25c-0.238,0-0.428-0.084-0.58-0.254
					c-0.146-0.173-0.222-0.416-0.222-0.729v-4.642c0-0.319,0.076-0.559,0.222-0.721c0.152-0.165,0.342-0.245,0.58-0.245
					c0.238,0,0.432,0.079,0.588,0.245C289.894,467.038,289.972,467.264,289.972,467.551"/>
				<path style="fill:#35909F;" d="M295.196,472.482l-1.428-2.354l-0.88,0.83v1.291c0,0.312-0.083,0.551-0.248,0.718
					c-0.16,0.17-0.354,0.254-0.566,0.254c-0.249,0-0.447-0.082-0.588-0.25c-0.142-0.165-0.215-0.41-0.215-0.734v-6.915
					c0-0.358,0.071-0.632,0.207-0.821c0.139-0.19,0.341-0.283,0.596-0.283c0.25,0,0.445,0.086,0.593,0.257
					c0.146,0.169,0.221,0.421,0.221,0.751v3.933l1.822-1.914c0.227-0.235,0.396-0.4,0.517-0.486c0.118-0.087,0.262-0.13,0.431-0.13
					c0.204,0,0.371,0.065,0.51,0.193c0.132,0.129,0.2,0.291,0.2,0.483c0,0.237-0.221,0.556-0.659,0.951l-0.861,0.789l1.662,2.614
					c0.121,0.196,0.212,0.34,0.265,0.441c0.052,0.1,0.081,0.2,0.081,0.289c0,0.258-0.071,0.459-0.213,0.61
					c-0.14,0.148-0.327,0.221-0.554,0.221c-0.198,0-0.352-0.051-0.458-0.16C295.526,472.954,295.377,472.76,295.196,472.482"/>
				<path style="fill:#35909F;" d="M298.718,473.222c-0.245,0-0.455-0.079-0.634-0.238c-0.178-0.156-0.268-0.378-0.268-0.665
					c0-0.241,0.086-0.449,0.256-0.622c0.172-0.174,0.38-0.262,0.63-0.262c0.248,0,0.46,0.087,0.639,0.258
					c0.174,0.172,0.264,0.383,0.264,0.626c0,0.283-0.089,0.505-0.264,0.662C299.163,473.143,298.955,473.222,298.718,473.222"/>
				<path style="fill:#35909F;" d="M306.78,471.216c0,0.2-0.06,0.417-0.182,0.646c-0.12,0.231-0.305,0.449-0.553,0.656
					c-0.247,0.207-0.557,0.377-0.935,0.502c-0.375,0.126-0.8,0.192-1.269,0.192c-1.004,0-1.786-0.294-2.349-0.876
					c-0.56-0.585-0.841-1.368-0.841-2.35c0-0.667,0.128-1.254,0.387-1.765c0.254-0.509,0.628-0.905,1.113-1.184
					c0.487-0.28,1.072-0.419,1.746-0.419c0.421,0,0.805,0.061,1.158,0.184c0.35,0.122,0.645,0.282,0.891,0.474
					c0.242,0.197,0.428,0.402,0.556,0.62c0.129,0.22,0.192,0.425,0.192,0.617c0,0.192-0.071,0.357-0.214,0.492
					c-0.147,0.134-0.322,0.203-0.524,0.203c-0.137,0-0.249-0.035-0.338-0.104c-0.09-0.07-0.19-0.181-0.299-0.339
					c-0.198-0.299-0.404-0.526-0.622-0.674c-0.214-0.152-0.488-0.226-0.821-0.226c-0.476,0-0.865,0.186-1.159,0.561
					c-0.292,0.372-0.44,0.888-0.44,1.534c0,0.305,0.039,0.587,0.114,0.842c0.073,0.254,0.182,0.472,0.325,0.652
					c0.144,0.179,0.315,0.315,0.516,0.409c0.203,0.096,0.425,0.141,0.665,0.141c0.326,0,0.604-0.075,0.836-0.225
					c0.235-0.151,0.439-0.38,0.616-0.689c0.099-0.182,0.204-0.323,0.318-0.427c0.114-0.102,0.256-0.156,0.422-0.156
					c0.198,0,0.363,0.077,0.491,0.226C306.714,470.885,306.78,471.047,306.78,471.216"/>
				<path style="fill:#35909F;" d="M313.774,469.928c0,0.481-0.076,0.928-0.222,1.337c-0.154,0.408-0.37,0.758-0.656,1.049
					c-0.284,0.293-0.626,0.518-1.02,0.675c-0.4,0.154-0.844,0.234-1.337,0.234c-0.491,0-0.933-0.08-1.326-0.239
					c-0.389-0.156-0.732-0.384-1.016-0.676c-0.288-0.298-0.505-0.646-0.657-1.048c-0.143-0.402-0.219-0.846-0.219-1.332
					c0-0.491,0.077-0.941,0.224-1.349c0.151-0.409,0.368-0.758,0.649-1.046c0.282-0.289,0.621-0.511,1.019-0.669
					c0.402-0.156,0.844-0.234,1.326-0.234c0.49,0,0.936,0.078,1.337,0.239c0.398,0.157,0.739,0.384,1.027,0.674
					c0.286,0.297,0.502,0.643,0.65,1.045C313.699,468.996,313.774,469.439,313.774,469.928 M312.147,469.928
					c0-0.662-0.146-1.176-0.436-1.543c-0.289-0.372-0.681-0.555-1.171-0.555c-0.317,0-0.597,0.082-0.839,0.246
					c-0.242,0.164-0.425,0.406-0.556,0.728c-0.131,0.321-0.197,0.696-0.197,1.124c0,0.424,0.064,0.792,0.194,1.108
					c0.13,0.319,0.314,0.561,0.553,0.729c0.241,0.167,0.522,0.253,0.845,0.253c0.49,0,0.882-0.185,1.171-0.557
					C312,471.091,312.147,470.579,312.147,469.928"/>
				<path style="fill:#35909F;" d="M319.956,470.047v2.154c0,0.342-0.075,0.595-0.231,0.767c-0.156,0.17-0.357,0.255-0.611,0.255
					c-0.245,0-0.446-0.085-0.595-0.255c-0.154-0.173-0.232-0.425-0.232-0.767v-2.582c0-0.408-0.013-0.726-0.04-0.953
					c-0.029-0.221-0.105-0.41-0.226-0.552c-0.123-0.147-0.318-0.22-0.582-0.22c-0.532,0-0.879,0.181-1.048,0.551
					c-0.167,0.36-0.254,0.883-0.254,1.567v2.189c0,0.336-0.076,0.592-0.226,0.765c-0.156,0.171-0.355,0.258-0.603,0.258
					c-0.247,0-0.448-0.087-0.604-0.258c-0.157-0.173-0.235-0.428-0.235-0.765v-4.637c0-0.306,0.07-0.538,0.209-0.695
					c0.143-0.16,0.329-0.239,0.556-0.239c0.223,0,0.407,0.077,0.557,0.222c0.148,0.149,0.222,0.354,0.222,0.615v0.153
					c0.283-0.334,0.584-0.582,0.903-0.738c0.323-0.162,0.676-0.241,1.07-0.241c0.407,0,0.757,0.082,1.049,0.244
					c0.293,0.163,0.533,0.409,0.725,0.735c0.275-0.33,0.568-0.577,0.881-0.738c0.313-0.161,0.658-0.241,1.039-0.241
					c0.441,0,0.826,0.089,1.146,0.262c0.319,0.174,0.558,0.425,0.717,0.747c0.138,0.295,0.206,0.756,0.206,1.385v3.164
					c0,0.342-0.076,0.595-0.229,0.767c-0.154,0.17-0.359,0.255-0.612,0.255c-0.247,0-0.446-0.087-0.603-0.258
					c-0.156-0.173-0.235-0.428-0.235-0.765v-2.726c0-0.349-0.015-0.627-0.043-0.836c-0.029-0.211-0.11-0.388-0.239-0.529
					c-0.132-0.142-0.331-0.215-0.596-0.215c-0.214,0-0.416,0.066-0.609,0.192c-0.192,0.124-0.342,0.298-0.45,0.508
					C320.018,468.869,319.956,469.353,319.956,470.047"/>
			</g>
			<g>
				<path style="fill:#35909F;" d="M244.516,469.536c-0.001-0.003-0.001-0.006-0.001-0.011
					C244.515,469.53,244.515,469.533,244.516,469.536z"/>
				<path style="fill:#35909F;" d="M244.598,470.054c0.001,0,0.001,0,0.001,0c-0.031-0.148-0.055-0.294-0.074-0.439
					C244.544,469.761,244.568,469.908,244.598,470.054z"/>
				<path style="fill:#35909F;" d="M245.134,471.558c-0.004-0.006-0.007-0.013-0.011-0.021
					C245.127,471.544,245.13,471.552,245.134,471.558z"/>
				<path style="fill:#35909F;" d="M245.083,471.458c-0.014-0.027-0.027-0.056-0.041-0.084
					C245.055,471.403,245.069,471.43,245.083,471.458z"/>
				<path style="fill:#35909F;" d="M244.748,470.633c0.079,0.25,0.175,0.493,0.286,0.724c-0.113-0.236-0.206-0.479-0.283-0.724
					C244.75,470.633,244.749,470.633,244.748,470.633z"/>
				<path style="fill:#35909F;" d="M250.789,463.325c0.313,0,0.544,0.025,0.809,0.07l0.075-0.477c0,0-0.732-0.225-1.694-0.147
					l-0.076-0.259c0.299-0.063,0.524-0.329,0.524-0.646c0-0.364-0.296-0.659-0.661-0.659c-0.364,0-0.66,0.295-0.66,0.659
					c0,0.317,0.224,0.583,0.522,0.646l0.084,0.289c-1.021,0.14-1.834,0.539-1.834,0.539l0.144,0.441
					c0.618-0.206,1.154-0.331,1.64-0.383C250.139,463.347,250.497,463.325,250.789,463.325z"/>
				<path style="fill:#35909F;" d="M245.122,465.737l0.004-0.005c0.024-0.031,0.047-0.06,0.071-0.089l-0.196-0.141l-0.305-0.223
					c-0.017,0.024-0.497,0.465-0.876,1.28c-0.016-0.026-0.035-0.051-0.056-0.074c-0.114-0.124-0.272-0.187-0.474-0.184
					c-0.003,0-0.006,0-0.009,0c-0.125,0-0.21-0.042-0.267-0.092c0.056-0.071,0.089-0.16,0.089-0.258c0-0.23-0.187-0.418-0.418-0.418
					c-0.23,0-0.418,0.188-0.418,0.418c0,0.231,0.187,0.418,0.418,0.418c0.036,0,0.071-0.006,0.104-0.013
					c0.103,0.114,0.266,0.214,0.505,0.209c0.123-0.001,0.213,0.031,0.273,0.097c0.069,0.076,0.093,0.185,0.1,0.267
					c-0.001,0.001-0.001,0.003-0.002,0.003c-0.272,0.743-0.194,1.669-0.194,1.669l0.661,0.026c0.013-0.337,0.062-0.927,0.232-1.394
					C244.693,466.327,245.105,465.761,245.122,465.737z"/>
				<path style="fill:#35909F;" d="M256.539,463.878c-0.23,0-0.418,0.187-0.418,0.418c0,0.036,0.005,0.07,0.015,0.103
					c-0.115,0.104-0.214,0.267-0.211,0.507c0.002,0.123-0.03,0.212-0.096,0.273c-0.053,0.047-0.12,0.072-0.185,0.088
					c-0.492-0.689-1.097-1.11-1.097-1.11l-0.474,0.508c0.358,0.326,0.725,0.734,1.08,1.244c0.246,0.352,0.499,0.806,0.71,1.259
					l0.64-0.304c0,0-0.292-0.722-0.704-1.37c0.072-0.025,0.144-0.064,0.207-0.12c0.125-0.113,0.187-0.273,0.183-0.474
					c-0.001-0.13,0.042-0.218,0.093-0.276c0.071,0.054,0.16,0.089,0.257,0.089c0.232,0,0.419-0.187,0.419-0.418
					C256.958,464.064,256.771,463.878,256.539,463.878z"/>
				<path style="fill:#35909F;" d="M254.878,469.629c-0.881,0.429-2.33,0.996-4.238,1.262c-0.749,0.104-1.475,0.142-2.143,0.142
					c-0.869,0-1.637-0.065-2.227-0.139c-0.673-0.085-1.199-0.189-1.52-0.261c0.077,0.245,0.171,0.488,0.283,0.724
					c0.002,0.006,0.005,0.013,0.008,0.017c0.013,0.027,0.027,0.056,0.041,0.084c0.013,0.027,0.027,0.054,0.041,0.079
					c0.004,0.007,0.007,0.015,0.011,0.021c0.189,0.357,0.417,0.684,0.675,0.968c0.9,0.984,1.817,1.14,1.826,1.141l0.014,0.002
					l0.013,0.005c0.008,0.003,0.821,0.266,2.057,0.266c1.216,0,2.409-0.245,3.546-0.729c0.842-0.431,1.639-1.085,2.034-1.669
					c0.305-0.452,0.525-0.933,0.656-1.434c0.07-0.266,0.124-0.692,0.092-1.141C255.8,469.133,255.408,469.371,254.878,469.629z"/>
				<path style="fill:#35909F;" d="M245.405,465.945c-0.026,0.037-0.408,0.578-0.709,1.408c-0.226,0.622-0.216,1.527-0.216,1.538
					v0.002c0,0.212,0.012,0.423,0.035,0.632c0,0.005,0,0.008,0.001,0.011c0.002,0.027,0.007,0.052,0.009,0.079
					c0.019,0.145,0.043,0.291,0.074,0.439c0.438,0.111,3.049,0.72,5.968,0.314c1.829-0.254,3.218-0.795,4.062-1.204
					c0.701-0.34,1.151-0.648,1.325-0.774c-0.173-0.643-0.651-1.65-1.09-2.279c-1.253-1.791-2.604-2.25-3.298-2.365
					c-0.265-0.043-0.477-0.068-0.777-0.068c-0.28,0-0.626,0.023-1.089,0.071c-0.464,0.048-0.982,0.17-1.583,0.372
					c-0.842,0.282-1.605,0.725-2.204,1.28l-0.021,0.019C245.804,465.502,245.618,465.674,245.405,465.945z M253.073,465.529
					c0.601,0,1.09,0.488,1.09,1.09c0,0.601-0.489,1.09-1.09,1.09c-0.601,0-1.089-0.489-1.089-1.09
					C251.984,466.017,252.472,465.529,253.073,465.529z M247.922,465.485c0.973,0,1.76,0.789,1.76,1.761
					c0,0.972-0.788,1.759-1.76,1.759c-0.972,0-1.76-0.787-1.76-1.759C246.162,466.274,246.951,465.485,247.922,465.485z"/>
			</g>
		</g>
	</g>
</g>
</svg>
